<svg width="790" height="174" viewBox="0 0 790 174" fill="none" xmlns="http://www.w3.org/2000/svg">
<path d="M26.6156 37.4L10.2156 34.8V22.4H120.616L122.616 58.6H106.616L99.2156 36.6L56.0156 34.4V91L85.8156 90.4L89.6156 72.8H102.416V123.6H89.8156L85.8156 105.6L56.0156 104.8V157L86.6156 159V171H11.2156V159L26.6156 157V37.4ZM160.23 41.6C155.43 41.6 151.63 40.2 148.83 37.4C146.03 34.6 144.63 31 144.63 26.6C144.63 21.5333 146.23 17.3333 149.43 14C152.63 10.6667 156.896 8.99999 162.23 8.99999C167.563 8.99999 171.63 10.4667 174.43 13.4C177.23 16.2 178.63 19.7333 178.63 24C178.63 29.3333 177.03 33.6 173.83 36.8C170.63 40 166.163 41.6 160.43 41.6H160.23ZM149.63 78.8L135.43 75V61.6L172.03 57.2H172.43L178.03 61.2V157.4L191.43 159V171H135.63V159L149.63 157.2V78.8ZM216.966 78.8L204.166 75.2V61.4L237.366 57.2H237.966L242.966 61.2V69L242.766 73.8C247.432 69.4 253.499 65.6 260.966 62.4C268.432 59.2 275.966 57.6 283.566 57.6C291.699 57.6 298.032 59.1333 302.566 62.2C307.232 65.1333 310.566 69.8 312.566 76.2C314.566 82.6 315.566 91.2667 315.566 102.2V157.4L327.766 159V171H276.166V159L286.966 157.4V102.2C286.966 95.2667 286.499 89.8667 285.566 86C284.632 82 282.899 79.1333 280.366 77.4C277.966 75.5333 274.499 74.6 269.966 74.6C262.366 74.6 254.232 77.8667 245.566 84.4V157.2L257.566 159V171H205.366V159L216.966 157.2V78.8ZM339.698 139.8C339.698 127.667 345.765 118.533 357.898 112.4C370.165 106.267 385.965 103.133 405.298 103V98.4C405.298 92.9333 404.698 88.6667 403.498 85.6C402.432 82.5333 400.365 80.2667 397.298 78.8C394.365 77.2 390.032 76.4 384.298 76.4C377.765 76.4 371.898 77.2667 366.698 79C361.498 80.6 356.098 82.7333 350.498 85.4L344.298 72.6C346.298 70.8667 349.632 68.8 354.298 66.4C359.098 64 364.765 61.9333 371.298 60.2C377.832 58.3333 384.565 57.4 391.498 57.4C401.765 57.4 409.765 58.7333 415.498 61.4C421.365 64.0667 425.565 68.3333 428.098 74.2C430.632 80.0667 431.898 87.9333 431.898 97.8V159H442.698V170.2C440.032 170.867 436.232 171.533 431.298 172.2C426.365 172.867 422.032 173.2 418.298 173.2C413.765 173.2 410.698 172.533 409.098 171.2C407.632 169.867 406.898 167.133 406.898 163V157.6C403.298 161.6 398.632 165.2 392.898 168.4C387.165 171.6 380.698 173.2 373.498 173.2C367.365 173.2 361.698 171.933 356.498 169.4C351.432 166.733 347.365 162.933 344.298 158C341.232 152.933 339.698 146.867 339.698 139.8ZM386.298 156.6C389.098 156.6 392.298 155.8 395.898 154.2C399.498 152.467 402.632 150.4 405.298 148V115.2C393.298 115.2 384.298 117.267 378.298 121.4C372.432 125.4 369.498 130.6 369.498 137C369.498 143.4 370.965 148.267 373.898 151.6C376.965 154.933 381.098 156.6 386.298 156.6ZM466.38 78.8L453.58 75.2V61.4L486.78 57.2H487.38L492.38 61.2V69L492.18 73.8C496.846 69.4 502.913 65.6 510.38 62.4C517.846 59.2 525.38 57.6 532.98 57.6C541.113 57.6 547.446 59.1333 551.98 62.2C556.646 65.1333 559.98 69.8 561.98 76.2C563.98 82.6 564.98 91.2667 564.98 102.2V157.4L577.18 159V171H525.58V159L536.38 157.4V102.2C536.38 95.2667 535.913 89.8667 534.98 86C534.046 82 532.313 79.1333 529.78 77.4C527.38 75.5333 523.913 74.6 519.38 74.6C511.78 74.6 503.646 77.8667 494.98 84.4V157.2L506.98 159V171H454.78V159L466.38 157.2V78.8ZM588.713 116C588.713 104.533 590.979 94.3333 595.512 85.4C600.179 76.4667 606.779 69.5333 615.313 64.6C623.979 59.5333 634.046 57 645.513 57C650.846 57 655.446 57.4 659.313 58.2C663.179 59 667.513 60.0667 672.313 61.4L678.113 63L676.913 97.2H659.513L654.513 75.2C653.713 71.7333 649.779 70 642.713 70C635.246 70 629.379 73.2667 625.113 79.8C620.979 86.3333 618.846 96.5333 618.713 110.4C618.713 125.067 621.246 136.333 626.313 144.2C631.379 151.933 638.113 155.8 646.513 155.8C656.646 155.8 665.979 153.067 674.513 147.6L679.113 158C675.646 161.733 670.313 165.2 663.113 168.4C656.046 171.6 648.379 173.2 640.113 173.2C623.046 173.2 610.179 167.933 601.513 157.4C592.979 146.867 588.713 133.067 588.713 116ZM745.423 173.2C727.823 173.2 714.69 168.067 706.023 157.8C697.49 147.4 693.223 133.267 693.223 115.4C693.223 103.4 695.423 93 699.823 84.2C704.357 75.4 710.69 68.6667 718.823 64C726.957 59.3333 736.357 57 747.023 57C760.357 57 770.623 60.5333 777.823 67.6C785.023 74.5333 788.757 84.4667 789.023 97.4C789.023 106.2 788.49 112.733 787.423 117H722.423C722.957 129.133 725.823 138.6 731.023 145.4C736.223 152.067 743.623 155.4 753.223 155.4C758.423 155.4 763.757 154.533 769.223 152.8C774.823 151.067 779.223 149 782.423 146.6L787.423 157.6C783.823 161.467 777.957 165.067 769.823 168.4C761.823 171.6 753.69 173.2 745.423 173.2ZM761.023 105C761.29 101.267 761.423 98.4 761.423 96.4C761.423 78.6667 755.49 69.8 743.623 69.8C737.09 69.8 732.023 72.4 728.423 77.6C724.823 82.8 722.823 91.9333 722.423 105H761.023Z" fill="black"/>
<path d="M16.6156 28.4L0.215625 25.8V13.4H110.616L112.616 49.6H96.6156L89.2156 27.6L46.0156 25.4V82L75.8156 81.4L79.6156 63.8H92.4156V114.6H79.8156L75.8156 96.6L46.0156 95.8V148L76.6156 150V162H1.21563V150L16.6156 148V28.4ZM150.23 32.6C145.43 32.6 141.63 31.2 138.83 28.4C136.03 25.6 134.63 22 134.63 17.6C134.63 12.5333 136.23 8.33332 139.43 4.99999C142.63 1.66666 146.896 -1.23978e-05 152.23 -1.23978e-05C157.563 -1.23978e-05 161.63 1.46666 164.43 4.39999C167.23 7.19999 168.63 10.7333 168.63 15C168.63 20.3333 167.03 24.6 163.83 27.8C160.63 31 156.163 32.6 150.43 32.6H150.23ZM139.63 69.8L125.43 66V52.6L162.03 48.2H162.43L168.03 52.2V148.4L181.43 150V162H125.63V150L139.63 148.2V69.8ZM206.966 69.8L194.166 66.2V52.4L227.366 48.2H227.966L232.966 52.2V60L232.766 64.8C237.432 60.4 243.499 56.6 250.966 53.4C258.432 50.2 265.966 48.6 273.566 48.6C281.699 48.6 288.032 50.1333 292.566 53.2C297.232 56.1333 300.566 60.8 302.566 67.2C304.566 73.6 305.566 82.2667 305.566 93.2V148.4L317.766 150V162H266.166V150L276.966 148.4V93.2C276.966 86.2667 276.499 80.8667 275.566 77C274.632 73 272.899 70.1333 270.366 68.4C267.966 66.5333 264.499 65.6 259.966 65.6C252.366 65.6 244.232 68.8667 235.566 75.4V148.2L247.566 150V162H195.366V150L206.966 148.2V69.8ZM329.698 130.8C329.698 118.667 335.765 109.533 347.898 103.4C360.165 97.2667 375.965 94.1333 395.298 94V89.4C395.298 83.9333 394.698 79.6667 393.498 76.6C392.432 73.5333 390.365 71.2667 387.298 69.8C384.365 68.2 380.032 67.4 374.298 67.4C367.765 67.4 361.898 68.2667 356.698 70C351.498 71.6 346.098 73.7333 340.498 76.4L334.298 63.6C336.298 61.8667 339.632 59.8 344.298 57.4C349.098 55 354.765 52.9333 361.298 51.2C367.832 49.3333 374.565 48.4 381.498 48.4C391.765 48.4 399.765 49.7333 405.498 52.4C411.365 55.0667 415.565 59.3333 418.098 65.2C420.632 71.0667 421.898 78.9333 421.898 88.8V150H432.698V161.2C430.032 161.867 426.232 162.533 421.298 163.2C416.365 163.867 412.032 164.2 408.298 164.2C403.765 164.2 400.698 163.533 399.098 162.2C397.632 160.867 396.898 158.133 396.898 154V148.6C393.298 152.6 388.632 156.2 382.898 159.4C377.165 162.6 370.698 164.2 363.498 164.2C357.365 164.2 351.698 162.933 346.498 160.4C341.432 157.733 337.365 153.933 334.298 149C331.232 143.933 329.698 137.867 329.698 130.8ZM376.298 147.6C379.098 147.6 382.298 146.8 385.898 145.2C389.498 143.467 392.632 141.4 395.298 139V106.2C383.298 106.2 374.298 108.267 368.298 112.4C362.432 116.4 359.498 121.6 359.498 128C359.498 134.4 360.965 139.267 363.898 142.6C366.965 145.933 371.098 147.6 376.298 147.6ZM456.38 69.8L443.58 66.2V52.4L476.78 48.2H477.38L482.38 52.2V60L482.18 64.8C486.846 60.4 492.913 56.6 500.38 53.4C507.846 50.2 515.38 48.6 522.98 48.6C531.113 48.6 537.446 50.1333 541.98 53.2C546.646 56.1333 549.98 60.8 551.98 67.2C553.98 73.6 554.98 82.2667 554.98 93.2V148.4L567.18 150V162H515.58V150L526.38 148.4V93.2C526.38 86.2667 525.913 80.8667 524.98 77C524.046 73 522.313 70.1333 519.78 68.4C517.38 66.5333 513.913 65.6 509.38 65.6C501.78 65.6 493.646 68.8667 484.98 75.4V148.2L496.98 150V162H444.78V150L456.38 148.2V69.8ZM578.713 107C578.713 95.5333 580.979 85.3333 585.512 76.4C590.179 67.4667 596.779 60.5333 605.313 55.6C613.979 50.5333 624.046 48 635.513 48C640.846 48 645.446 48.4 649.313 49.2C653.179 50 657.513 51.0667 662.313 52.4L668.113 54L666.913 88.2H649.513L644.513 66.2C643.713 62.7333 639.779 61 632.713 61C625.246 61 619.379 64.2667 615.113 70.8C610.979 77.3333 608.846 87.5333 608.713 101.4C608.713 116.067 611.246 127.333 616.313 135.2C621.379 142.933 628.113 146.8 636.513 146.8C646.646 146.8 655.979 144.067 664.513 138.6L669.113 149C665.646 152.733 660.313 156.2 653.113 159.4C646.046 162.6 638.379 164.2 630.113 164.2C613.046 164.2 600.179 158.933 591.513 148.4C582.979 137.867 578.713 124.067 578.713 107ZM735.423 164.2C717.823 164.2 704.69 159.067 696.023 148.8C687.49 138.4 683.223 124.267 683.223 106.4C683.223 94.4 685.423 84 689.823 75.2C694.357 66.4 700.69 59.6667 708.823 55C716.957 50.3333 726.357 48 737.023 48C750.357 48 760.623 51.5333 767.823 58.6C775.023 65.5333 778.757 75.4667 779.023 88.4C779.023 97.2 778.49 103.733 777.423 108H712.423C712.957 120.133 715.823 129.6 721.023 136.4C726.223 143.067 733.623 146.4 743.223 146.4C748.423 146.4 753.757 145.533 759.223 143.8C764.823 142.067 769.223 140 772.423 137.6L777.423 148.6C773.823 152.467 767.957 156.067 759.823 159.4C751.823 162.6 743.69 164.2 735.423 164.2ZM751.023 96C751.29 92.2667 751.423 89.4 751.423 87.4C751.423 69.6667 745.49 60.8 733.623 60.8C727.09 60.8 722.023 63.4 718.423 68.6C714.823 73.8 712.823 82.9333 712.423 96H751.023Z" fill="#A87BC7"/>
</svg>
