<svg width="379" height="356" viewBox="0 0 379 356" fill="none" xmlns="http://www.w3.org/2000/svg">
<circle cx="186.047" cy="169.793" r="145" fill="#A87BC7" stroke="#A87BC7" stroke-width="10"/>
<circle cx="76.0474" cy="126.793" r="11" fill="white" stroke="black" stroke-width="8"/>
<path d="M149.547 53.2932C161.714 46.1265 194.847 36.0932 230.047 53.2932" stroke="#A87BC7" stroke-width="7"/>
<path d="M44.4477 155.793H18.9733C18.172 155.793 17.3395 155.903 16.8764 156.557C13.7762 160.934 9.99032 182.975 17.0881 204.646C18.3296 208.437 21.9964 210.793 25.9851 210.793H50.0474" stroke="#A87BC7" stroke-width="10"/>
<path d="M126.047 38.7932C112.047 27.4599 79.7474 6.89319 62.5474 15.2932C70.8807 23.7932 88.3474 45.1932 91.5474 62.7932" stroke="#A87BC7" stroke-width="10"/>
<path d="M122.547 38.2574C108.547 26.9241 76.2474 6.35743 59.0474 14.7574C67.3807 23.2574 84.8474 44.6574 88.0474 62.2574" stroke="#A87BC7" stroke-width="10"/>
<path d="M102.047 285.793V335.64C111.214 342.547 135.047 352.218 157.047 335.64V307.636" stroke="#A87BC7" stroke-width="10"/>
<path d="M273.047 285.793V335.64C263.881 342.547 240.047 352.218 218.047 335.64V307.636" stroke="#A87BC7" stroke-width="10"/>
<path d="M72.1902 29.8071C65.7564 27.3783 51.3204 23.5226 45.0474 27.5301C54.095 35.4237 74.3617 55.1274 83.0474 70.7932" stroke="#A87BC7" stroke-width="10"/>
<rect x="16.0474" y="156.793" width="36" height="54" fill="#A87BC7"/>
<rect x="99.0474" y="285.793" width="58" height="54" fill="#A87BC7"/>
<rect x="215.047" y="285.793" width="58" height="54" fill="#A87BC7"/>
<path d="M95.5474 66.2932L65.0474 13.2932L83.5474 14.7932L122.047 39.7932L95.5474 66.2932Z" fill="#A87BC7" stroke="#A87BC7"/>
<path d="M85.5474 65.7932L49.5474 30.2932L78.0474 25.2932L85.5474 65.7932Z" fill="#A87BC7" stroke="#A87BC7"/>
<path d="M92.0474 60.2932L50.0474 9.2932C73.6474 -3.9068 111.547 16.4599 127.547 28.2932C297.147 -7.30678 337.547 113.793 336.547 178.793C333.347 223.593 296.881 269.793 279.047 287.293V337.293C249.447 360.093 221.714 348.46 211.547 339.793V316.293C193.947 325.093 171.214 319.96 162.047 316.293V337.293C134.047 355.293 105.381 344.793 94.5474 337.293V293.293C62.1474 268.893 46.714 232.793 43.0474 217.793C37.8474 217.793 21.8807 215.793 14.5473 214.793C-1.45267 176.793 6.21399 155.293 12.0473 149.293L34.5473 146.793C39.3473 99.1932 65.0474 73.9599 75.5474 67.2932C65.214 54.2932 43.0474 28.2932 37.0474 28.2932C47.3807 25.6266 66.1474 20.4932 58.5474 21.2932" stroke="black" stroke-width="10"/>
<path d="M183.685 248.793C182.585 248.793 181.735 248.443 181.135 247.743C180.535 247.143 180.235 246.343 180.235 245.343V234.843C172.935 234.243 166.785 232.593 161.785 229.893C156.785 227.093 152.985 223.743 150.385 219.843C147.785 215.943 146.385 211.793 146.185 207.393C146.185 206.593 146.485 205.893 147.085 205.293C147.785 204.593 148.585 204.243 149.485 204.243H157.135C158.335 204.243 159.235 204.543 159.835 205.143C160.435 205.743 160.835 206.443 161.035 207.243C161.635 209.643 162.885 212.043 164.785 214.443C166.685 216.743 169.385 218.693 172.885 220.293C176.485 221.793 181.085 222.543 186.685 222.543C195.285 222.543 201.585 221.043 205.585 218.043C209.685 214.943 211.735 210.843 211.735 205.743C211.735 202.243 210.635 199.443 208.435 197.343C206.335 195.143 203.085 193.193 198.685 191.493C194.285 189.793 188.585 187.943 181.585 185.943C174.285 183.843 168.235 181.543 163.435 179.043C158.635 176.543 155.035 173.443 152.635 169.743C150.335 166.043 149.185 161.343 149.185 155.643C149.185 148.343 151.885 142.093 157.285 136.893C162.685 131.593 170.335 128.493 180.235 127.593V117.243C180.235 116.243 180.535 115.443 181.135 114.843C181.735 114.143 182.585 113.793 183.685 113.793H189.385C190.385 113.793 191.185 114.143 191.785 114.843C192.485 115.443 192.835 116.243 192.835 117.243V127.743C199.535 128.543 205.135 130.393 209.635 133.293C214.135 136.193 217.535 139.543 219.835 143.343C222.135 147.143 223.335 150.843 223.435 154.443C223.435 155.143 223.185 155.843 222.685 156.543C222.185 157.143 221.385 157.443 220.285 157.443H212.335C211.635 157.443 210.885 157.243 210.085 156.843C209.385 156.443 208.835 155.693 208.435 154.593C207.835 150.493 205.535 147.043 201.535 144.243C197.535 141.443 192.335 140.043 185.935 140.043C179.435 140.043 174.135 141.293 170.035 143.793C166.035 146.293 164.035 150.193 164.035 155.493C164.035 158.893 164.985 161.743 166.885 164.043C168.785 166.243 171.785 168.193 175.885 169.893C179.985 171.593 185.335 173.393 191.935 175.293C199.935 177.493 206.485 179.843 211.585 182.343C216.685 184.743 220.435 187.793 222.835 191.493C225.335 195.093 226.585 199.743 226.585 205.443C226.585 211.143 225.185 216.093 222.385 220.293C219.685 224.493 215.785 227.843 210.685 230.343C205.685 232.843 199.735 234.393 192.835 234.993V245.343C192.835 246.343 192.485 247.143 191.785 247.743C191.185 248.443 190.385 248.793 189.385 248.793H183.685Z" fill="#F5F5F5"/>
<path d="M336.047 174.293C340.881 179.627 353.747 187.693 366.547 177.293C379.347 166.893 371.214 157.96 365.547 154.793C355.147 152.393 349.881 155.793 348.547 157.793C346.947 162.993 349.214 166.96 350.547 168.293" stroke="black" stroke-width="10"/>
</svg>
