<svg width="892" height="173" viewBox="0 0 892 173" fill="none" xmlns="http://www.w3.org/2000/svg">
<g clip-path="url(#clip0_62_4)">
<path d="M25.7602 36.4L9.36017 33.8V21.4H119.76L121.76 57.6H105.76L98.3602 35.6L55.1602 33.4V90L84.9602 89.4L88.7602 71.8H101.56V122.6H88.9602L84.9602 104.6L55.1602 103.8V156L85.7602 158V170H10.3602V158L25.7602 156V36.4ZM159.374 40.6C154.574 40.6 150.774 39.2 147.974 36.4C145.174 33.6 143.774 30 143.774 25.6C143.774 20.5333 145.374 16.3333 148.574 13C151.774 9.66667 156.041 8 161.374 8C166.708 8 170.774 9.46667 173.574 12.4C176.374 15.2 177.774 18.7333 177.774 23C177.774 28.3333 176.174 32.6 172.974 35.8C169.774 39 165.308 40.6 159.574 40.6H159.374ZM148.774 77.8L134.574 74V60.6L171.174 56.2H171.574L177.174 60.2V156.4L190.574 158V170H134.774V158L148.774 156.2V77.8ZM216.11 77.8L203.31 74.2V60.4L236.51 56.2H237.11L242.11 60.2V68L241.91 72.8C246.577 68.4 252.643 64.6 260.11 61.4C267.577 58.2 275.11 56.6 282.71 56.6C290.843 56.6 297.177 58.1333 301.71 61.2C306.377 64.1333 309.71 68.8 311.71 75.2C313.71 81.6 314.71 90.2667 314.71 101.2V156.4L326.91 158V170H275.31V158L286.11 156.4V101.2C286.11 94.2667 285.643 88.8667 284.71 85C283.777 81 282.043 78.1333 279.51 76.4C277.11 74.5333 273.643 73.6 269.11 73.6C261.51 73.6 253.377 76.8667 244.71 83.4V156.2L256.71 158V170H204.51V158L216.11 156.2V77.8ZM338.843 138.8C338.843 126.667 344.91 117.533 357.043 111.4C369.31 105.267 385.11 102.133 404.443 102V97.4C404.443 91.9333 403.843 87.6667 402.643 84.6C401.576 81.5333 399.51 79.2667 396.443 77.8C393.51 76.2 389.176 75.4 383.443 75.4C376.91 75.4 371.043 76.2667 365.843 78C360.643 79.6 355.243 81.7333 349.643 84.4L343.443 71.6C345.443 69.8667 348.776 67.8 353.443 65.4C358.243 63 363.91 60.9333 370.443 59.2C376.976 57.3333 383.71 56.4 390.643 56.4C400.91 56.4 408.91 57.7333 414.643 60.4C420.51 63.0667 424.71 67.3333 427.243 73.2C429.776 79.0667 431.043 86.9333 431.043 96.8V158H441.843V169.2C439.176 169.867 435.376 170.533 430.443 171.2C425.51 171.867 421.176 172.2 417.443 172.2C412.91 172.2 409.843 171.533 408.243 170.2C406.776 168.867 406.043 166.133 406.043 162V156.6C402.443 160.6 397.776 164.2 392.043 167.4C386.31 170.6 379.843 172.2 372.643 172.2C366.51 172.2 360.843 170.933 355.643 168.4C350.576 165.733 346.51 161.933 343.443 157C340.376 151.933 338.843 145.867 338.843 138.8ZM385.443 155.6C388.243 155.6 391.443 154.8 395.043 153.2C398.643 151.467 401.776 149.4 404.443 147V114.2C392.443 114.2 383.443 116.267 377.443 120.4C371.576 124.4 368.643 129.6 368.643 136C368.643 142.4 370.11 147.267 373.043 150.6C376.11 153.933 380.243 155.6 385.443 155.6ZM465.524 77.8L452.724 74.2V60.4L485.924 56.2H486.524L491.524 60.2V68L491.324 72.8C495.991 68.4 502.058 64.6 509.524 61.4C516.991 58.2 524.524 56.6 532.124 56.6C540.258 56.6 546.591 58.1333 551.124 61.2C555.791 64.1333 559.124 68.8 561.124 75.2C563.124 81.6 564.124 90.2667 564.124 101.2V156.4L576.324 158V170H524.724V158L535.524 156.4V101.2C535.524 94.2667 535.058 88.8667 534.124 85C533.191 81 531.458 78.1333 528.924 76.4C526.524 74.5333 523.058 73.6 518.524 73.6C510.924 73.6 502.791 76.8667 494.124 83.4V156.2L506.124 158V170H453.924V158L465.524 156.2V77.8ZM587.857 115C587.857 103.533 590.124 93.3333 594.657 84.4C599.324 75.4667 605.924 68.5333 614.457 63.6C623.124 58.5333 633.19 56 644.657 56C649.99 56 654.59 56.4 658.457 57.2C662.324 58 666.657 59.0667 671.457 60.4L677.257 62L676.057 96.2H658.657L653.657 74.2C652.857 70.7333 648.924 69 641.857 69C634.39 69 628.524 72.2667 624.257 78.8C620.124 85.3333 617.99 95.5333 617.857 109.4C617.857 124.067 620.39 135.333 625.457 143.2C630.524 150.933 637.257 154.8 645.657 154.8C655.79 154.8 665.124 152.067 673.657 146.6L678.257 157C674.79 160.733 669.457 164.2 662.257 167.4C655.19 170.6 647.524 172.2 639.257 172.2C622.19 172.2 609.324 166.933 600.657 156.4C592.124 145.867 587.857 132.067 587.857 115ZM744.568 172.2C726.968 172.2 713.835 167.067 705.168 156.8C696.635 146.4 692.368 132.267 692.368 114.4C692.368 102.4 694.568 92 698.968 83.2C703.501 74.4 709.835 67.6667 717.968 63C726.101 58.3333 735.501 56 746.168 56C759.501 56 769.768 59.5333 776.968 66.6C784.168 73.5333 787.901 83.4667 788.168 96.4C788.168 105.2 787.635 111.733 786.568 116H721.568C722.101 128.133 724.968 137.6 730.168 144.4C735.368 151.067 742.768 154.4 752.368 154.4C757.568 154.4 762.901 153.533 768.368 151.8C773.968 150.067 778.368 148 781.568 145.6L786.568 156.6C782.968 160.467 777.101 164.067 768.968 167.4C760.968 170.6 752.835 172.2 744.568 172.2ZM760.168 104C760.435 100.267 760.568 97.4 760.568 95.4C760.568 77.6667 754.635 68.8 742.768 68.8C736.235 68.8 731.168 71.4 727.568 76.6C723.968 81.8 721.968 90.9333 721.568 104H760.168ZM826.329 153.6C827.396 155.2 829.796 156.733 833.529 158.2C837.396 159.533 841.262 160.2 845.129 160.2C851.396 160.2 856.062 158.933 859.129 156.4C862.329 153.733 863.929 150.267 863.929 146C863.929 141.6 861.996 138.067 858.129 135.4C854.262 132.6 847.729 129.2 838.529 125.2L832.929 122.8C823.729 118.933 816.862 114.267 812.329 108.8C807.796 103.333 805.529 96.2667 805.529 87.6C805.529 81.6 807.329 76.2667 810.929 71.6C814.529 66.8 819.596 63.0667 826.129 60.4C832.662 57.7333 840.196 56.4 848.729 56.4C854.996 56.4 860.329 56.8 864.729 57.6C869.262 58.4 873.996 59.4667 878.929 60.8C881.596 61.7333 883.596 62.2667 884.929 62.4V88.6H869.129L864.529 73.4C863.729 72.0667 861.929 70.8667 859.129 69.8C856.329 68.7333 853.129 68.2 849.529 68.2C844.062 68.2 839.662 69.4 836.329 71.8C833.129 74.0667 831.529 77.2667 831.529 81.4C831.529 85.1333 832.662 88.2667 834.929 90.8C837.196 93.2 839.662 95.0667 842.329 96.4C844.996 97.7333 849.929 99.9333 857.129 103C864.329 106.067 870.262 109 874.929 111.8C879.729 114.6 883.662 118.267 886.729 122.8C889.929 127.2 891.529 132.6 891.529 139C891.529 148.867 887.662 156.867 879.929 163C872.196 169.133 861.062 172.2 846.529 172.2C839.729 172.2 833.596 171.6 828.129 170.4C822.796 169.2 816.596 167.6 809.529 165.6L805.129 164.2V137.8H821.729L826.329 153.6Z" fill="black"/>
<path d="M16.7602 28.4L0.360168 25.8V13.4H110.76L112.76 49.6H96.7602L89.3602 27.6L46.1602 25.4V82L75.9602 81.4L79.7602 63.8H92.5602V114.6H79.9602L75.9602 96.6L46.1602 95.8V148L76.7602 150V162H1.36017V150L16.7602 148V28.4ZM150.374 32.6C145.574 32.6 141.774 31.2 138.974 28.4C136.174 25.6 134.774 22 134.774 17.6C134.774 12.5333 136.374 8.33333 139.574 5C142.774 1.66667 147.041 0 152.374 0C157.708 0 161.774 1.46667 164.574 4.4C167.374 7.2 168.774 10.7333 168.774 15C168.774 20.3333 167.174 24.6 163.974 27.8C160.774 31 156.308 32.6 150.574 32.6H150.374ZM139.774 69.8L125.574 66V52.6L162.174 48.2H162.574L168.174 52.2V148.4L181.574 150V162H125.774V150L139.774 148.2V69.8ZM207.11 69.8L194.31 66.2V52.4L227.51 48.2H228.11L233.11 52.2V60L232.91 64.8C237.577 60.4 243.643 56.6 251.11 53.4C258.577 50.2 266.11 48.6 273.71 48.6C281.843 48.6 288.177 50.1333 292.71 53.2C297.377 56.1333 300.71 60.8 302.71 67.2C304.71 73.6 305.71 82.2667 305.71 93.2V148.4L317.91 150V162H266.31V150L277.11 148.4V93.2C277.11 86.2667 276.643 80.8667 275.71 77C274.777 73 273.043 70.1333 270.51 68.4C268.11 66.5333 264.643 65.6 260.11 65.6C252.51 65.6 244.377 68.8667 235.71 75.4V148.2L247.71 150V162H195.51V150L207.11 148.2V69.8ZM329.843 130.8C329.843 118.667 335.91 109.533 348.043 103.4C360.31 97.2667 376.11 94.1333 395.443 94V89.4C395.443 83.9333 394.843 79.6667 393.643 76.6C392.576 73.5333 390.51 71.2667 387.443 69.8C384.51 68.2 380.176 67.4 374.443 67.4C367.91 67.4 362.043 68.2667 356.843 70C351.643 71.6 346.243 73.7333 340.643 76.4L334.443 63.6C336.443 61.8667 339.776 59.8 344.443 57.4C349.243 55 354.91 52.9333 361.443 51.2C367.976 49.3333 374.71 48.4 381.643 48.4C391.91 48.4 399.91 49.7333 405.643 52.4C411.51 55.0667 415.71 59.3333 418.243 65.2C420.776 71.0667 422.043 78.9333 422.043 88.8V150H432.843V161.2C430.176 161.867 426.376 162.533 421.443 163.2C416.51 163.867 412.176 164.2 408.443 164.2C403.91 164.2 400.843 163.533 399.243 162.2C397.776 160.867 397.043 158.133 397.043 154V148.6C393.443 152.6 388.776 156.2 383.043 159.4C377.31 162.6 370.843 164.2 363.643 164.2C357.51 164.2 351.843 162.933 346.643 160.4C341.576 157.733 337.51 153.933 334.443 149C331.376 143.933 329.843 137.867 329.843 130.8ZM376.443 147.6C379.243 147.6 382.443 146.8 386.043 145.2C389.643 143.467 392.776 141.4 395.443 139V106.2C383.443 106.2 374.443 108.267 368.443 112.4C362.576 116.4 359.643 121.6 359.643 128C359.643 134.4 361.11 139.267 364.043 142.6C367.11 145.933 371.243 147.6 376.443 147.6ZM456.524 69.8L443.724 66.2V52.4L476.924 48.2H477.524L482.524 52.2V60L482.324 64.8C486.991 60.4 493.058 56.6 500.524 53.4C507.991 50.2 515.524 48.6 523.124 48.6C531.258 48.6 537.591 50.1333 542.124 53.2C546.791 56.1333 550.124 60.8 552.124 67.2C554.124 73.6 555.124 82.2667 555.124 93.2V148.4L567.324 150V162H515.724V150L526.524 148.4V93.2C526.524 86.2667 526.058 80.8667 525.124 77C524.191 73 522.458 70.1333 519.924 68.4C517.524 66.5333 514.058 65.6 509.524 65.6C501.924 65.6 493.791 68.8667 485.124 75.4V148.2L497.124 150V162H444.924V150L456.524 148.2V69.8ZM578.857 107C578.857 95.5333 581.124 85.3333 585.657 76.4C590.324 67.4667 596.924 60.5333 605.457 55.6C614.124 50.5333 624.19 48 635.657 48C640.99 48 645.59 48.4 649.457 49.2C653.324 50 657.657 51.0667 662.457 52.4L668.257 54L667.057 88.2H649.657L644.657 66.2C643.857 62.7333 639.924 61 632.857 61C625.39 61 619.524 64.2667 615.257 70.8C611.124 77.3333 608.99 87.5333 608.857 101.4C608.857 116.067 611.39 127.333 616.457 135.2C621.524 142.933 628.257 146.8 636.657 146.8C646.79 146.8 656.124 144.067 664.657 138.6L669.257 149C665.79 152.733 660.457 156.2 653.257 159.4C646.19 162.6 638.524 164.2 630.257 164.2C613.19 164.2 600.324 158.933 591.657 148.4C583.124 137.867 578.857 124.067 578.857 107ZM735.568 164.2C717.968 164.2 704.835 159.067 696.168 148.8C687.635 138.4 683.368 124.267 683.368 106.4C683.368 94.4 685.568 84 689.968 75.2C694.501 66.4 700.835 59.6667 708.968 55C717.101 50.3333 726.501 48 737.168 48C750.501 48 760.768 51.5333 767.968 58.6C775.168 65.5333 778.901 75.4667 779.168 88.4C779.168 97.2 778.635 103.733 777.568 108H712.568C713.101 120.133 715.968 129.6 721.168 136.4C726.368 143.067 733.768 146.4 743.368 146.4C748.568 146.4 753.901 145.533 759.368 143.8C764.968 142.067 769.368 140 772.568 137.6L777.568 148.6C773.968 152.467 768.101 156.067 759.968 159.4C751.968 162.6 743.835 164.2 735.568 164.2ZM751.168 96C751.435 92.2667 751.568 89.4 751.568 87.4C751.568 69.6667 745.635 60.8 733.768 60.8C727.235 60.8 722.168 63.4 718.568 68.6C714.968 73.8 712.968 82.9333 712.568 96H751.168ZM817.329 145.6C818.396 147.2 820.796 148.733 824.529 150.2C828.396 151.533 832.262 152.2 836.129 152.2C842.396 152.2 847.062 150.933 850.129 148.4C853.329 145.733 854.929 142.267 854.929 138C854.929 133.6 852.996 130.067 849.129 127.4C845.262 124.6 838.729 121.2 829.529 117.2L823.929 114.8C814.729 110.933 807.862 106.267 803.329 100.8C798.796 95.3333 796.529 88.2667 796.529 79.6C796.529 73.6 798.329 68.2667 801.929 63.6C805.529 58.8 810.596 55.0667 817.129 52.4C823.662 49.7333 831.196 48.4 839.729 48.4C845.996 48.4 851.329 48.8 855.729 49.6C860.262 50.4 864.996 51.4667 869.929 52.8C872.596 53.7333 874.596 54.2667 875.929 54.4V80.6H860.129L855.529 65.4C854.729 64.0667 852.929 62.8667 850.129 61.8C847.329 60.7333 844.129 60.2 840.529 60.2C835.062 60.2 830.662 61.4 827.329 63.8C824.129 66.0667 822.529 69.2667 822.529 73.4C822.529 77.1333 823.662 80.2667 825.929 82.8C828.196 85.2 830.662 87.0667 833.329 88.4C835.996 89.7333 840.929 91.9333 848.129 95C855.329 98.0667 861.262 101 865.929 103.8C870.729 106.6 874.662 110.267 877.729 114.8C880.929 119.2 882.529 124.6 882.529 131C882.529 140.867 878.662 148.867 870.929 155C863.196 161.133 852.062 164.2 837.529 164.2C830.729 164.2 824.596 163.6 819.129 162.4C813.796 161.2 807.596 159.6 800.529 157.6L796.129 156.2V129.8H812.729L817.329 145.6Z" fill="#A87BC7"/>
</g>
<defs>
<clipPath id="clip0_62_4">
<rect width="892" height="173" fill="white"/>
</clipPath>
</defs>
</svg>
