<svg width="500" height="106" viewBox="0 0 500 106" fill="none" xmlns="http://www.w3.org/2000/svg">
<path d="M11.354 18.496L0.858 16.832V8.896H71.514L72.794 32.064H62.554L57.818 17.984L30.17 16.576V52.8L49.242 52.416L51.674 41.152H59.866V73.664H51.802L49.242 62.144L30.17 61.632V95.04L49.754 96.32V104H1.498V96.32L11.354 95.04V18.496ZM96.867 21.184C93.795 21.184 91.363 20.288 89.571 18.496C87.779 16.704 86.883 14.4 86.883 11.584C86.883 8.34133 87.907 5.65333 89.955 3.52C92.003 1.38666 94.7337 0.319992 98.147 0.319992C101.56 0.319992 104.163 1.25866 105.955 3.13599C107.747 4.928 108.643 7.18933 108.643 9.92C108.643 13.3333 107.619 16.064 105.571 18.112C103.523 20.16 100.664 21.184 96.995 21.184H96.867ZM90.083 44.992L80.995 42.56V33.984L104.419 31.168H104.675L108.259 33.728V95.296L116.835 96.32V104H81.123V96.32L90.083 95.168V44.992ZM133.178 44.992L124.986 42.688V33.856L146.234 31.168H146.618L149.818 33.728V38.72L149.69 41.792C152.677 38.976 156.559 36.544 161.338 34.496C166.117 32.448 170.938 31.424 175.802 31.424C181.007 31.424 185.061 32.4053 187.962 34.368C190.949 36.2453 193.082 39.232 194.362 43.328C195.642 47.424 196.282 52.9707 196.282 59.968V95.296L204.09 96.32V104H171.066V96.32L177.978 95.296V59.968C177.978 55.5307 177.679 52.0747 177.082 49.6C176.485 47.04 175.375 45.2053 173.754 44.096C172.218 42.9013 169.999 42.304 167.098 42.304C162.234 42.304 157.029 44.3947 151.482 48.576V95.168L159.162 96.32V104H125.754V96.32L133.178 95.168V44.992ZM211.727 84.032C211.727 76.2667 215.61 70.4213 223.375 66.496C231.226 62.5707 241.338 60.5653 253.711 60.48V57.536C253.711 54.0373 253.327 51.3067 252.559 49.344C251.876 47.3813 250.554 45.9307 248.591 44.992C246.714 43.968 243.94 43.456 240.271 43.456C236.09 43.456 232.335 44.0107 229.007 45.12C225.679 46.144 222.223 47.5093 218.639 49.216L214.671 41.024C215.951 39.9147 218.084 38.592 221.071 37.056C224.143 35.52 227.77 34.1973 231.951 33.088C236.132 31.8933 240.442 31.296 244.879 31.296C251.45 31.296 256.57 32.1493 260.239 33.856C263.994 35.5627 266.682 38.2933 268.303 42.048C269.924 45.8027 270.735 50.8373 270.735 57.152V96.32H277.647V103.488C275.94 103.915 273.508 104.341 270.351 104.768C267.194 105.195 264.42 105.408 262.031 105.408C259.13 105.408 257.167 104.981 256.143 104.128C255.204 103.275 254.735 101.525 254.735 98.88V95.424C252.431 97.984 249.444 100.288 245.775 102.336C242.106 104.384 237.967 105.408 233.359 105.408C229.434 105.408 225.807 104.597 222.479 102.976C219.236 101.269 216.634 98.8373 214.671 95.68C212.708 92.4373 211.727 88.5547 211.727 84.032ZM241.551 94.784C243.343 94.784 245.391 94.272 247.695 93.248C249.999 92.1387 252.004 90.816 253.711 89.28V68.288C246.031 68.288 240.271 69.6107 236.431 72.256C232.676 74.816 230.799 78.144 230.799 82.24C230.799 86.336 231.738 89.4507 233.615 91.584C235.578 93.7173 238.223 94.784 241.551 94.784ZM292.803 44.992L284.611 42.688V33.856L305.859 31.168H306.243L309.443 33.728V38.72L309.315 41.792C312.302 38.976 316.184 36.544 320.963 34.496C325.742 32.448 330.563 31.424 335.427 31.424C340.632 31.424 344.686 32.4053 347.587 34.368C350.574 36.2453 352.707 39.232 353.987 43.328C355.267 47.424 355.907 52.9707 355.907 59.968V95.296L363.715 96.32V104H330.691V96.32L337.603 95.296V59.968C337.603 55.5307 337.304 52.0747 336.707 49.6C336.11 47.04 335 45.2053 333.379 44.096C331.843 42.9013 329.624 42.304 326.723 42.304C321.859 42.304 316.654 44.3947 311.107 48.576V95.168L318.787 96.32V104H285.379V96.32L292.803 95.168V44.992ZM371.096 68.8C371.096 61.4613 372.547 54.9333 375.448 49.216C378.435 43.4987 382.659 39.0613 388.12 35.904C393.667 32.6613 400.109 31.04 407.448 31.04C410.861 31.04 413.805 31.296 416.28 31.808C418.755 32.32 421.528 33.0027 424.6 33.856L428.312 34.88L427.544 56.768H416.408L413.208 42.688C412.696 40.4693 410.179 39.36 405.656 39.36C400.877 39.36 397.123 41.4507 394.392 45.632C391.747 49.8133 390.381 56.3413 390.296 65.216C390.296 74.6027 391.917 81.8133 395.16 86.848C398.403 91.7973 402.712 94.272 408.088 94.272C414.573 94.272 420.547 92.5227 426.008 89.024L428.952 95.68C426.733 98.0693 423.32 100.288 418.712 102.336C414.189 104.384 409.283 105.408 403.992 105.408C393.069 105.408 384.835 102.037 379.288 95.296C373.827 88.5547 371.096 79.7227 371.096 68.8ZM471.391 105.408C460.127 105.408 451.722 102.123 446.175 95.552C440.714 88.896 437.983 79.8507 437.983 68.416C437.983 60.736 439.391 54.08 442.207 48.448C445.108 42.816 449.162 38.5067 454.367 35.52C459.572 32.5333 465.588 31.04 472.415 31.04C480.948 31.04 487.519 33.3013 492.127 37.824C496.735 42.2613 499.124 48.6187 499.295 56.896C499.295 62.528 498.954 66.7093 498.271 69.44H456.671C457.012 77.2053 458.847 83.264 462.175 87.616C465.503 91.8827 470.239 94.016 476.383 94.016C479.711 94.016 483.124 93.4613 486.623 92.352C490.207 91.2427 493.023 89.92 495.071 88.384L498.271 95.424C495.967 97.8987 492.212 100.203 487.007 102.336C481.887 104.384 476.682 105.408 471.391 105.408ZM481.375 61.76C481.546 59.3707 481.631 57.536 481.631 56.256C481.631 44.9067 477.834 39.232 470.239 39.232C466.058 39.232 462.815 40.896 460.511 44.224C458.207 47.552 456.927 53.3973 456.671 61.76H481.375Z" fill="#734A91"/>
</svg>
